<svg id="visual" viewBox="0 0 900 600" width="900" height="600" xmlns="http://www.w3.org/2000/svg" xmlns:xlink="http://www.w3.org/1999/xlink" version="1.1"><rect x="0" y="0" width="900" height="600" fill="#002233"></rect><path d="M0 430L21.5 438.8C43 447.7 86 465.3 128.8 459C171.7 452.7 214.3 422.3 257.2 413.5C300 404.7 343 417.3 385.8 425.5C428.7 433.7 471.3 437.3 514.2 444.8C557 452.3 600 463.7 642.8 474.8C685.7 486 728.3 497 771.2 486.3C814 475.7 857 443.3 878.5 427.2L900 411L900 601L878.5 601C857 601 814 601 771.2 601C728.3 601 685.7 601 642.8 601C600 601 557 601 514.2 601C471.3 601 428.7 601 385.8 601C343 601 300 601 257.2 601C214.3 601 171.7 601 128.8 601C86 601 43 601 21.5 601L0 601Z" fill="#0066FF" stroke-linecap="round" stroke-linejoin="miter"></path></svg>